<mxfile host="app.diagrams.net" modified="2024-05-11T20:10:08.652Z" agent="Mozilla/5.0 (Windows NT 10.0; Win64; x64) AppleWebKit/537.36 (KHTML, like Gecko) Chrome/124.0.0.0 Safari/537.36" etag="4m7HXamJn7KO9eVdb20j" version="24.4.0" type="google">
  <diagram name="PÃ¡gina-1" id="n-D3w3eR8k1ApjIUf4Uu">
    <mxGraphModel grid="0" page="0" gridSize="10" guides="1" tooltips="1" connect="1" arrows="1" fold="1" pageScale="1" pageWidth="850" pageHeight="1100" math="0" shadow="0">
      <root>
        <mxCell id="0" />
        <mxCell id="1" parent="0" />
        <mxCell id="dIiY1WpT-VKgWrn0wu1s-1" value="" style="group;dropTarget=0;pointerEvents=0;" vertex="1" parent="1">
          <mxGeometry x="70" y="604" width="1058" height="525" as="geometry" />
        </mxCell>
        <mxCell id="dIiY1WpT-VKgWrn0wu1s-4" value="Tela Inicial" style="html=1;overflow=block;blockSpacing=1;whiteSpace=wrap;fontSize=16.7;spacing=3.8;strokeOpacity=100;fillOpacity=100;rounded=1;absoluteArcSize=1;arcSize=9;strokeWidth=1.5;lucidId=QU6AVOuGcwJT;" vertex="1" parent="dIiY1WpT-VKgWrn0wu1s-1">
          <mxGeometry x="180" width="106" height="75" as="geometry" />
        </mxCell>
        <mxCell id="dIiY1WpT-VKgWrn0wu1s-6" value="Tela de Producao" style="html=1;overflow=block;blockSpacing=1;whiteSpace=wrap;fontSize=16.7;spacing=3.8;strokeOpacity=100;fillOpacity=100;rounded=1;absoluteArcSize=1;arcSize=9;strokeWidth=1.5;lucidId=QU6AYmiTjyOi;" vertex="1" parent="dIiY1WpT-VKgWrn0wu1s-1">
          <mxGeometry x="376" width="158" height="75" as="geometry" />
        </mxCell>
        <mxCell id="dIiY1WpT-VKgWrn0wu1s-8" value="Tela de Produtos" style="html=1;overflow=block;blockSpacing=1;whiteSpace=wrap;fontSize=16.7;spacing=3.8;strokeOpacity=100;fillOpacity=100;rounded=1;absoluteArcSize=1;arcSize=9;strokeWidth=1.5;lucidId=QU6An-CZBKAW;" vertex="1" parent="dIiY1WpT-VKgWrn0wu1s-1">
          <mxGeometry x="724" y="-4" width="154" height="75" as="geometry" />
        </mxCell>
        <mxCell id="dIiY1WpT-VKgWrn0wu1s-10" value="Tela de Fornecedores" style="html=1;overflow=block;blockSpacing=1;whiteSpace=wrap;fontSize=16.7;spacing=3.8;strokeOpacity=100;fillOpacity=100;rounded=1;absoluteArcSize=1;arcSize=9;strokeWidth=1.5;lucidId=QU6AYAYUA0df;" vertex="1" parent="dIiY1WpT-VKgWrn0wu1s-1">
          <mxGeometry x="967" y="-4" width="190" height="75" as="geometry" />
        </mxCell>
        <mxCell id="dIiY1WpT-VKgWrn0wu1s-12" value="" style="html=1;jettySize=18;whiteSpace=wrap;fontSize=13;strokeColor=#5E5E5E;dashed=1;fixDash=1;strokeWidth=1.5;rounded=0;startArrow=none;endArrow=none;exitX=0.5;exitY=1.01;exitPerimeter=0;entryX=0.5;entryY=-0.01;entryPerimeter=0;lucidId=QU6Abw6g88A0;" edge="1" parent="dIiY1WpT-VKgWrn0wu1s-1" source="dIiY1WpT-VKgWrn0wu1s-35">
          <mxGeometry width="100" height="100" relative="1" as="geometry">
            <Array as="points" />
            <mxPoint x="45" y="449.25" as="targetPoint" />
          </mxGeometry>
        </mxCell>
        <mxCell id="dIiY1WpT-VKgWrn0wu1s-13" value="" style="html=1;jettySize=18;whiteSpace=wrap;fontSize=13;strokeColor=#5E5E5E;dashed=1;fixDash=1;strokeWidth=1.5;rounded=0;startArrow=none;endArrow=none;exitX=0.5;exitY=1.01;exitPerimeter=0;entryX=0.5;entryY=-0.01;entryPerimeter=0;lucidId=QU6AJS1xShHZ;" edge="1" parent="dIiY1WpT-VKgWrn0wu1s-1" source="dIiY1WpT-VKgWrn0wu1s-4">
          <mxGeometry width="100" height="100" relative="1" as="geometry">
            <Array as="points" />
            <mxPoint x="233.00000000000023" y="449.25" as="targetPoint" />
          </mxGeometry>
        </mxCell>
        <mxCell id="dIiY1WpT-VKgWrn0wu1s-14" value="" style="html=1;jettySize=18;whiteSpace=wrap;fontSize=13;strokeColor=#5E5E5E;dashed=1;fixDash=1;strokeWidth=1.5;rounded=0;startArrow=none;endArrow=none;exitX=0.5;exitY=1.01;exitPerimeter=0;entryX=0.5;entryY=-0.01;entryPerimeter=0;lucidId=QU6A-0V6UKaW;" edge="1" parent="dIiY1WpT-VKgWrn0wu1s-1" source="dIiY1WpT-VKgWrn0wu1s-41">
          <mxGeometry width="100" height="100" relative="1" as="geometry">
            <Array as="points" />
            <mxPoint x="455" y="449.25" as="targetPoint" />
          </mxGeometry>
        </mxCell>
        <mxCell id="dIiY1WpT-VKgWrn0wu1s-15" value="" style="html=1;jettySize=18;whiteSpace=wrap;fontSize=13;strokeColor=#5E5E5E;dashed=1;fixDash=1;strokeWidth=1.5;rounded=0;startArrow=none;endArrow=none;exitX=0.5;exitY=1.01;exitPerimeter=0;entryX=0.5;entryY=-0.01;entryPerimeter=0;lucidId=QU6AYLN7fRvm;" edge="1" parent="dIiY1WpT-VKgWrn0wu1s-1" source="dIiY1WpT-VKgWrn0wu1s-74">
          <mxGeometry width="100" height="100" relative="1" as="geometry">
            <Array as="points" />
            <mxPoint x="801" y="445.25" as="targetPoint" />
          </mxGeometry>
        </mxCell>
        <mxCell id="dIiY1WpT-VKgWrn0wu1s-16" value="" style="html=1;jettySize=18;whiteSpace=wrap;fontSize=13;strokeColor=#5E5E5E;dashed=1;fixDash=1;strokeWidth=1.5;rounded=0;startArrow=none;endArrow=none;exitX=0.5;exitY=1.01;exitPerimeter=0;entryX=0.5;entryY=-0.01;entryPerimeter=0;lucidId=QU6AtCe0EZ~6;" edge="1" parent="dIiY1WpT-VKgWrn0wu1s-1" source="dIiY1WpT-VKgWrn0wu1s-10">
          <mxGeometry width="100" height="100" relative="1" as="geometry">
            <Array as="points" />
            <mxPoint x="1062" y="445.25" as="targetPoint" />
          </mxGeometry>
        </mxCell>
        <mxCell id="dIiY1WpT-VKgWrn0wu1s-17" value="" style="html=1;jettySize=18;whiteSpace=wrap;fontSize=13;strokeColor=#5E5E5E;strokeWidth=1.5;rounded=0;startArrow=none;endArrow=block;endFill=1;lucidId=QU6AeEQ4P~9p;entryX=-0.015;entryY=0.213;entryDx=0;entryDy=0;entryPerimeter=0;" edge="1" parent="dIiY1WpT-VKgWrn0wu1s-1" target="dIiY1WpT-VKgWrn0wu1s-39">
          <mxGeometry width="100" height="100" relative="1" as="geometry">
            <Array as="points" />
            <mxPoint x="45" y="120" as="sourcePoint" />
            <mxPoint x="233" y="120" as="targetPoint" />
          </mxGeometry>
        </mxCell>
        <mxCell id="dIiY1WpT-VKgWrn0wu1s-18" value="&lt;font style=&quot;font-size: 11px;&quot;&gt;Acessa a Tela Inicial&lt;/font&gt;" style="text;html=1;resizable=0;labelBackgroundColor=default;align=center;verticalAlign=middle;fontStyle=1;fontSize=13.3;" vertex="1" parent="dIiY1WpT-VKgWrn0wu1s-17">
          <mxGeometry relative="1" as="geometry">
            <mxPoint as="offset" />
          </mxGeometry>
        </mxCell>
        <mxCell id="dIiY1WpT-VKgWrn0wu1s-19" value="" style="html=1;jettySize=18;whiteSpace=wrap;fontSize=13;strokeColor=#5E5E5E;strokeWidth=1.5;rounded=0;startArrow=none;endArrow=block;endFill=1;lucidId=QU6ANDEOrSkx;entryX=-0.077;entryY=0.144;entryDx=0;entryDy=0;entryPerimeter=0;" edge="1" parent="dIiY1WpT-VKgWrn0wu1s-1" target="dIiY1WpT-VKgWrn0wu1s-41">
          <mxGeometry width="100" height="100" relative="1" as="geometry">
            <Array as="points" />
            <mxPoint x="233" y="165" as="sourcePoint" />
            <mxPoint x="455" y="165" as="targetPoint" />
          </mxGeometry>
        </mxCell>
        <mxCell id="dIiY1WpT-VKgWrn0wu1s-20" value="&lt;font style=&quot;font-size: 11px;&quot;&gt;Vai para a Tela de Producao&lt;/font&gt;" style="text;html=1;resizable=0;labelBackgroundColor=default;align=center;verticalAlign=middle;fontStyle=1;fontSize=13.3;" vertex="1" parent="dIiY1WpT-VKgWrn0wu1s-19">
          <mxGeometry relative="1" as="geometry">
            <mxPoint as="offset" />
          </mxGeometry>
        </mxCell>
        <mxCell id="dIiY1WpT-VKgWrn0wu1s-23" value="" style="html=1;jettySize=18;whiteSpace=wrap;fontSize=13;strokeColor=#5E5E5E;strokeWidth=1.5;rounded=0;startArrow=none;endArrow=block;endFill=1;lucidId=QU6AlcGz4B_1;entryX=-0.03;entryY=0.175;entryDx=0;entryDy=0;entryPerimeter=0;" edge="1" parent="dIiY1WpT-VKgWrn0wu1s-1" target="dIiY1WpT-VKgWrn0wu1s-74">
          <mxGeometry width="100" height="100" relative="1" as="geometry">
            <Array as="points" />
            <mxPoint x="466" y="275" as="sourcePoint" />
            <mxPoint x="701" y="269" as="targetPoint" />
          </mxGeometry>
        </mxCell>
        <mxCell id="dIiY1WpT-VKgWrn0wu1s-24" value="Vai para a Tela de &lt;br&gt;Produtos" style="text;html=1;resizable=0;labelBackgroundColor=default;align=center;verticalAlign=middle;fontStyle=1;fontSize=13.3;" vertex="1" parent="dIiY1WpT-VKgWrn0wu1s-23">
          <mxGeometry relative="1" as="geometry">
            <mxPoint x="79" y="-19" as="offset" />
          </mxGeometry>
        </mxCell>
        <mxCell id="dIiY1WpT-VKgWrn0wu1s-41" value="" style="html=1;overflow=block;blockSpacing=1;whiteSpace=wrap;fontSize=16.7;spacing=3.8;strokeOpacity=100;fillOpacity=100;rounded=1;absoluteArcSize=1;arcSize=9;strokeWidth=1.5;lucidId=QU6AwF_V5.gW;" vertex="1" parent="dIiY1WpT-VKgWrn0wu1s-1">
          <mxGeometry x="442" y="146" width="26" height="200" as="geometry" />
        </mxCell>
        <mxCell id="dIiY1WpT-VKgWrn0wu1s-43" value="" style="html=1;jettySize=18;whiteSpace=wrap;fontSize=13;strokeColor=#5E5E5E;dashed=1;fixDash=1;strokeWidth=1.5;rounded=0;startArrow=none;endArrow=none;exitX=0.5;exitY=1.01;exitPerimeter=0;entryX=0.5;entryY=-0.01;entryPerimeter=0;lucidId=QU6A-0V6UKaW;" edge="1" parent="dIiY1WpT-VKgWrn0wu1s-1" source="dIiY1WpT-VKgWrn0wu1s-6" target="dIiY1WpT-VKgWrn0wu1s-41">
          <mxGeometry width="100" height="100" relative="1" as="geometry">
            <Array as="points" />
            <mxPoint x="512" y="687" as="sourcePoint" />
            <mxPoint x="512" y="1060.25" as="targetPoint" />
          </mxGeometry>
        </mxCell>
        <mxCell id="dIiY1WpT-VKgWrn0wu1s-35" value="" style="html=1;overflow=block;blockSpacing=1;whiteSpace=wrap;fontSize=16.7;spacing=3.8;strokeOpacity=100;fillOpacity=100;rounded=1;absoluteArcSize=1;arcSize=9;strokeWidth=1.5;lucidId=QU6AwF_V5.gW;" vertex="1" parent="dIiY1WpT-VKgWrn0wu1s-1">
          <mxGeometry x="32" y="94.5" width="26" height="336" as="geometry" />
        </mxCell>
        <mxCell id="dIiY1WpT-VKgWrn0wu1s-73" value="" style="html=1;jettySize=18;whiteSpace=wrap;fontSize=13;strokeColor=#5E5E5E;dashed=1;fixDash=1;strokeWidth=1.5;rounded=0;startArrow=none;endArrow=none;exitX=0.5;exitY=1.01;exitPerimeter=0;entryX=0.5;entryY=-0.01;entryPerimeter=0;lucidId=QU6Abw6g88A0;" edge="1" parent="dIiY1WpT-VKgWrn0wu1s-1" target="dIiY1WpT-VKgWrn0wu1s-35">
          <mxGeometry width="100" height="100" relative="1" as="geometry">
            <Array as="points" />
            <mxPoint x="45" y="75.75" as="sourcePoint" />
            <mxPoint x="112" y="1060.25" as="targetPoint" />
          </mxGeometry>
        </mxCell>
        <mxCell id="dIiY1WpT-VKgWrn0wu1s-74" value="" style="html=1;overflow=block;blockSpacing=1;whiteSpace=wrap;fontSize=16.7;spacing=3.8;strokeOpacity=100;fillOpacity=100;rounded=1;absoluteArcSize=1;arcSize=9;strokeWidth=1.5;lucidId=QU6AwF_V5.gW;" vertex="1" parent="dIiY1WpT-VKgWrn0wu1s-1">
          <mxGeometry x="788" y="256" width="26" height="112" as="geometry" />
        </mxCell>
        <mxCell id="dIiY1WpT-VKgWrn0wu1s-93" value="" style="html=1;jettySize=18;whiteSpace=wrap;fontSize=13;strokeColor=#5E5E5E;dashed=1;fixDash=1;strokeWidth=1.5;rounded=0;startArrow=none;endArrow=none;exitX=0.5;exitY=1.01;exitPerimeter=0;entryX=0.5;entryY=-0.01;entryPerimeter=0;lucidId=QU6AYLN7fRvm;" edge="1" parent="dIiY1WpT-VKgWrn0wu1s-1" source="dIiY1WpT-VKgWrn0wu1s-8" target="dIiY1WpT-VKgWrn0wu1s-74">
          <mxGeometry width="100" height="100" relative="1" as="geometry">
            <Array as="points" />
            <mxPoint x="871" y="676" as="sourcePoint" />
            <mxPoint x="871" y="1049.25" as="targetPoint" />
          </mxGeometry>
        </mxCell>
        <mxCell id="dIiY1WpT-VKgWrn0wu1s-39" value="" style="html=1;overflow=block;blockSpacing=1;whiteSpace=wrap;fontSize=16.7;spacing=3.8;strokeOpacity=100;fillOpacity=100;rounded=1;absoluteArcSize=1;arcSize=9;strokeWidth=1.5;lucidId=QU6AwF_V5.gW;" vertex="1" parent="1">
          <mxGeometry x="286" y="713" width="26" height="80" as="geometry" />
        </mxCell>
        <mxCell id="dIiY1WpT-VKgWrn0wu1s-75" value="" style="html=1;overflow=block;blockSpacing=1;whiteSpace=wrap;fontSize=16.7;spacing=3.8;strokeOpacity=100;fillOpacity=100;rounded=1;absoluteArcSize=1;arcSize=9;strokeWidth=1.5;lucidId=QU6AwF_V5.gW;" vertex="1" parent="1">
          <mxGeometry x="1117" y="913" width="26" height="128" as="geometry" />
        </mxCell>
        <mxCell id="dIiY1WpT-VKgWrn0wu1s-77" value="ADM" style="shape=umlActor;verticalLabelPosition=bottom;verticalAlign=top;html=1;" vertex="1" parent="1">
          <mxGeometry x="98" y="608" width="30" height="60" as="geometry" />
        </mxCell>
        <mxCell id="dIiY1WpT-VKgWrn0wu1s-29" value="" style="html=1;jettySize=18;whiteSpace=wrap;fontSize=13;strokeColor=#5E5E5E;dashed=1;fixDash=1;strokeWidth=1.5;rounded=0;startArrow=none;endArrow=block;endFill=1;lucidId=QU6AQzjPSFdp;entryX=1.103;entryY=0.968;entryDx=0;entryDy=0;entryPerimeter=0;exitX=0.115;exitY=0.886;exitDx=0;exitDy=0;exitPerimeter=0;" edge="1" parent="1" source="dIiY1WpT-VKgWrn0wu1s-75" target="dIiY1WpT-VKgWrn0wu1s-35">
          <mxGeometry width="100" height="100" relative="1" as="geometry">
            <Array as="points" />
            <mxPoint x="1030" y="1030" as="sourcePoint" />
            <mxPoint x="112" y="1030" as="targetPoint" />
          </mxGeometry>
        </mxCell>
        <mxCell id="dIiY1WpT-VKgWrn0wu1s-30" value="Confirma pedido" style="text;html=1;resizable=0;labelBackgroundColor=default;align=center;verticalAlign=middle;fontStyle=1;fontSize=13.3;" vertex="1" parent="dIiY1WpT-VKgWrn0wu1s-29">
          <mxGeometry relative="1" as="geometry">
            <mxPoint as="offset" />
          </mxGeometry>
        </mxCell>
        <mxCell id="dIiY1WpT-VKgWrn0wu1s-82" value="" style="html=1;jettySize=18;whiteSpace=wrap;fontSize=13;strokeColor=#5E5E5E;dashed=1;fixDash=1;strokeWidth=1.5;rounded=0;startArrow=none;endArrow=none;exitX=0.5;exitY=1.01;exitPerimeter=0;entryX=0.5;entryY=-0.01;entryPerimeter=0;lucidId=QU6AYLN7fRvm;" edge="1" parent="1" source="dIiY1WpT-VKgWrn0wu1s-83">
          <mxGeometry width="100" height="100" relative="1" as="geometry">
            <Array as="points" />
            <mxPoint x="683" y="686.88" as="sourcePoint" />
            <mxPoint x="683" y="1060.13" as="targetPoint" />
          </mxGeometry>
        </mxCell>
        <mxCell id="dIiY1WpT-VKgWrn0wu1s-84" value="" style="html=1;jettySize=18;whiteSpace=wrap;fontSize=13;strokeColor=#5E5E5E;dashed=1;fixDash=1;strokeWidth=1.5;rounded=0;startArrow=none;endArrow=none;exitX=0.5;exitY=1.01;exitPerimeter=0;entryX=0.5;entryY=-0.01;entryPerimeter=0;lucidId=QU6AYLN7fRvm;" edge="1" parent="1" target="dIiY1WpT-VKgWrn0wu1s-83">
          <mxGeometry width="100" height="100" relative="1" as="geometry">
            <Array as="points" />
            <mxPoint x="683" y="686.88" as="sourcePoint" />
            <mxPoint x="683" y="1060.13" as="targetPoint" />
          </mxGeometry>
        </mxCell>
        <mxCell id="dIiY1WpT-VKgWrn0wu1s-83" value="" style="html=1;overflow=block;blockSpacing=1;whiteSpace=wrap;fontSize=16.7;spacing=3.8;strokeOpacity=100;fillOpacity=100;rounded=1;absoluteArcSize=1;arcSize=9;strokeWidth=1.5;lucidId=QU6AwF_V5.gW;" vertex="1" parent="1">
          <mxGeometry x="669" y="793" width="26" height="159" as="geometry" />
        </mxCell>
        <mxCell id="dIiY1WpT-VKgWrn0wu1s-85" value="tbl_insumos" style="shape=umlBoundary;whiteSpace=wrap;html=1;" vertex="1" parent="1">
          <mxGeometry x="628" y="609" width="100" height="80" as="geometry" />
        </mxCell>
        <mxCell id="dIiY1WpT-VKgWrn0wu1s-21" value="" style="html=1;jettySize=18;whiteSpace=wrap;fontSize=13;strokeColor=#5E5E5E;strokeWidth=1.5;rounded=0;edgeStyle=orthogonalEdgeStyle;startArrow=none;endArrow=block;endFill=1;lucidId=QU6AFnYHmESs;entryX=0;entryY=0.25;entryDx=0;entryDy=0;" edge="1" parent="1" target="dIiY1WpT-VKgWrn0wu1s-83">
          <mxGeometry width="100" height="100" relative="1" as="geometry">
            <Array as="points">
              <mxPoint x="536" y="833" />
            </Array>
            <mxPoint x="536" y="828" as="sourcePoint" />
            <mxPoint x="621" y="811" as="targetPoint" />
          </mxGeometry>
        </mxCell>
        <mxCell id="dIiY1WpT-VKgWrn0wu1s-22" value="Verifica insumos&lt;div&gt;&amp;nbsp;faltante&lt;/div&gt;" style="text;html=1;resizable=0;labelBackgroundColor=default;align=center;verticalAlign=middle;fontStyle=1;fontSize=13.3;" vertex="1" parent="dIiY1WpT-VKgWrn0wu1s-21">
          <mxGeometry relative="1" as="geometry">
            <mxPoint x="-7" y="-19" as="offset" />
          </mxGeometry>
        </mxCell>
        <mxCell id="dIiY1WpT-VKgWrn0wu1s-88" value="" style="html=1;jettySize=18;whiteSpace=wrap;fontSize=13;strokeColor=#5E5E5E;dashed=1;fixDash=1;strokeWidth=1.5;rounded=0;startArrow=none;endArrow=block;endFill=1;lucidId=QU6AQzjPSFdp;exitX=0.04;exitY=0.421;exitDx=0;exitDy=0;exitPerimeter=0;entryX=1.034;entryY=0.551;entryDx=0;entryDy=0;entryPerimeter=0;" edge="1" parent="1" source="dIiY1WpT-VKgWrn0wu1s-83" target="dIiY1WpT-VKgWrn0wu1s-41">
          <mxGeometry width="100" height="100" relative="1" as="geometry">
            <Array as="points" />
            <mxPoint x="659.8888888888889" y="852" as="sourcePoint" />
            <mxPoint x="536" y="852" as="targetPoint" />
          </mxGeometry>
        </mxCell>
        <mxCell id="dIiY1WpT-VKgWrn0wu1s-89" value="quantidade&amp;nbsp;&lt;br&gt;insumos" style="text;html=1;resizable=0;labelBackgroundColor=default;align=center;verticalAlign=middle;fontStyle=1;fontSize=13.3;" vertex="1" parent="dIiY1WpT-VKgWrn0wu1s-88">
          <mxGeometry relative="1" as="geometry">
            <mxPoint as="offset" />
          </mxGeometry>
        </mxCell>
        <mxCell id="dIiY1WpT-VKgWrn0wu1s-95" value="" style="html=1;jettySize=18;whiteSpace=wrap;fontSize=13;strokeColor=#5E5E5E;strokeWidth=1.5;rounded=0;edgeStyle=orthogonalEdgeStyle;startArrow=none;endArrow=block;endFill=1;lucidId=QU6AFnYHmESs;exitX=0;exitY=0.5;exitDx=0;exitDy=0;" edge="1" parent="1" source="dIiY1WpT-VKgWrn0wu1s-74">
          <mxGeometry width="100" height="100" relative="1" as="geometry">
            <Array as="points">
              <mxPoint x="854" y="897" />
              <mxPoint x="775" y="897" />
            </Array>
            <mxPoint x="714" y="912" as="sourcePoint" />
            <mxPoint x="697" y="897" as="targetPoint" />
          </mxGeometry>
        </mxCell>
        <mxCell id="dIiY1WpT-VKgWrn0wu1s-96" value="&lt;font style=&quot;font-size: 12px;&quot;&gt;Verifica insumos&lt;/font&gt;&lt;div style=&quot;font-size: 12px;&quot;&gt;&lt;font style=&quot;font-size: 12px;&quot;&gt;&amp;nbsp;faltante&lt;/font&gt;&lt;/div&gt;" style="text;html=1;resizable=0;labelBackgroundColor=default;align=center;verticalAlign=middle;fontStyle=1;fontSize=13.3;" vertex="1" parent="dIiY1WpT-VKgWrn0wu1s-95">
          <mxGeometry relative="1" as="geometry">
            <mxPoint x="-8" y="19" as="offset" />
          </mxGeometry>
        </mxCell>
        <mxCell id="dIiY1WpT-VKgWrn0wu1s-97" value="" style="html=1;jettySize=18;whiteSpace=wrap;fontSize=13;strokeColor=#5E5E5E;dashed=1;fixDash=1;strokeWidth=1.5;rounded=0;startArrow=none;endArrow=block;endFill=1;lucidId=QU6AQzjPSFdp;entryX=0;entryY=0.75;entryDx=0;entryDy=0;" edge="1" parent="1" target="dIiY1WpT-VKgWrn0wu1s-74">
          <mxGeometry width="100" height="100" relative="1" as="geometry">
            <Array as="points" />
            <mxPoint x="697" y="944" as="sourcePoint" />
            <mxPoint x="857.9959999999999" y="943.002" as="targetPoint" />
          </mxGeometry>
        </mxCell>
        <mxCell id="dIiY1WpT-VKgWrn0wu1s-98" value="quantidade&amp;nbsp;&lt;br&gt;insumos" style="text;html=1;resizable=0;labelBackgroundColor=default;align=center;verticalAlign=middle;fontStyle=1;fontSize=13.3;" vertex="1" parent="dIiY1WpT-VKgWrn0wu1s-97">
          <mxGeometry relative="1" as="geometry">
            <mxPoint x="-1" y="18" as="offset" />
          </mxGeometry>
        </mxCell>
        <mxCell id="dIiY1WpT-VKgWrn0wu1s-25" value="" style="html=1;jettySize=18;whiteSpace=wrap;fontSize=13;strokeColor=#5E5E5E;strokeWidth=1.5;rounded=0;startArrow=none;endArrow=block;endFill=1;lucidId=QU6As4eJnSRj;entryX=-0.153;entryY=0.321;entryDx=0;entryDy=0;entryPerimeter=0;exitX=0.95;exitY=0.834;exitDx=0;exitDy=0;exitPerimeter=0;" edge="1" parent="1" source="dIiY1WpT-VKgWrn0wu1s-74" target="dIiY1WpT-VKgWrn0wu1s-75">
          <mxGeometry width="100" height="100" relative="1" as="geometry">
            <Array as="points" />
            <mxPoint x="870" y="914" as="sourcePoint" />
            <mxPoint x="1132" y="914" as="targetPoint" />
          </mxGeometry>
        </mxCell>
        <mxCell id="dIiY1WpT-VKgWrn0wu1s-26" value="Vai para a Tela de Fornecedores" style="text;html=1;resizable=0;labelBackgroundColor=default;align=center;verticalAlign=middle;fontStyle=1;fontSize=13.3;" vertex="1" parent="dIiY1WpT-VKgWrn0wu1s-25">
          <mxGeometry relative="1" as="geometry">
            <mxPoint y="-13" as="offset" />
          </mxGeometry>
        </mxCell>
        <mxCell id="dIiY1WpT-VKgWrn0wu1s-27" value="" style="html=1;jettySize=18;whiteSpace=wrap;fontSize=13;strokeColor=#5E5E5E;strokeWidth=1.5;rounded=0;edgeStyle=orthogonalEdgeStyle;startArrow=none;endArrow=block;endFill=1;lucidId=QU6AhUb7YqnL;entryX=1.021;entryY=0.607;entryDx=0;entryDy=0;entryPerimeter=0;exitX=0.988;exitY=0.342;exitDx=0;exitDy=0;exitPerimeter=0;" edge="1" parent="1" source="dIiY1WpT-VKgWrn0wu1s-75" target="dIiY1WpT-VKgWrn0wu1s-75">
          <mxGeometry width="100" height="100" relative="1" as="geometry">
            <Array as="points">
              <mxPoint x="1148" y="957" />
              <mxPoint x="1182" y="956" />
              <mxPoint x="1182" y="991" />
            </Array>
            <mxPoint x="1137" y="944" as="sourcePoint" />
            <mxPoint x="1149.612" y="998.76" as="targetPoint" />
          </mxGeometry>
        </mxCell>
        <mxCell id="dIiY1WpT-VKgWrn0wu1s-28" value="Faz pedido do produto faltante" style="text;html=1;resizable=0;labelBackgroundColor=default;align=center;verticalAlign=middle;fontStyle=1;fontSize=13.3;" vertex="1" parent="dIiY1WpT-VKgWrn0wu1s-27">
          <mxGeometry relative="1" as="geometry">
            <mxPoint x="100" y="2" as="offset" />
          </mxGeometry>
        </mxCell>
      </root>
    </mxGraphModel>
  </diagram>
</mxfile>
